<?xml version="1.0" encoding="UTF-8"?>
<svg xmlns="http://www.w3.org/2000/svg" xmlns:xlink="http://www.w3.org/1999/xlink" width="1024px" height="1024px" viewBox="0 0 1024 1024" version="1.1">
<defs>
<clipPath id="clip1">
  <path d="M 491.683594 595 L 602 595 L 602 614 L 491.683594 614 Z M 491.683594 595 "/>
</clipPath>
<clipPath id="clip2">
  <path d="M 533.339844 468.234375 L 875.355469 468.234375 L 875.355469 749.835938 L 533.339844 749.835938 Z M 533.339844 468.234375 "/>
</clipPath>
</defs>
<g id="surface1">
<path style=" stroke:none;fill-rule:nonzero;fill:rgb(0%,0%,0%);fill-opacity:1;" d="M 992.316406 648.5 C 979.144531 692.5625 959.839844 734.554688 934.972656 773.242188 C 914.75 804.699219 891.519531 834.117188 865.609375 861.082031 C 862.25 864.726562 858.523438 868.042969 854.9375 871.484375 C 851.355469 874.925781 847.789062 878.40625 844.125 881.726562 L 832.859375 891.515625 L 827.226562 896.429688 L 821.390625 901.039062 L 809.738281 910.378906 C 805.785156 913.386719 801.75 916.234375 797.738281 919.183594 C 789.832031 925.328125 781.351562 930.570312 773.160156 936.140625 C 771.953125 936.941406 770.722656 937.800781 769.433594 938.660156 L 765.335938 941.199219 L 755.976562 946.789062 C 749.382812 950.886719 741.640625 954.796875 733.226562 959.261719 C 731.175781 960.328125 728.984375 961.535156 726.734375 962.601562 L 719.871094 965.796875 L 705.371094 972.492188 C 695.132812 976.589844 684.503906 981.300781 672.851562 985.027344 C 568.730469 1021.25 455.433594 1021.25 351.3125 985.027344 C 339.660156 981.300781 328.992188 976.488281 318.792969 972.492188 L 304.292969 965.796875 L 297.429688 962.601562 C 295.199219 961.535156 293.089844 960.328125 290.9375 959.261719 C 282.542969 954.777344 274.78125 950.886719 268.1875 946.789062 L 258.828125 941.199219 L 254.730469 938.660156 C 253.460938 937.800781 252.191406 936.960938 251.003906 936.183594 C 219.703125 915.78125 190.46875 892.367188 163.71875 866.285156 C 135.699219 837.980469 110.75 806.800781 89.273438 773.261719 C 64.394531 734.582031 45.09375 692.585938 31.929688 648.519531 C 5.011719 559.496094 5.011719 464.503906 31.929688 375.480469 C 45.101562 331.417969 64.40625 289.425781 89.273438 250.738281 C 109.503906 219.285156 132.734375 189.867188 158.636719 162.898438 C 161.996094 159.253906 165.722656 155.957031 169.308594 152.492188 C 172.890625 149.03125 176.457031 145.550781 180.121094 142.253906 L 191.386719 132.464844 L 197.019531 127.550781 L 202.855469 122.941406 L 214.507812 113.644531 C 218.460938 110.632812 222.515625 107.785156 226.507812 104.816406 C 234.414062 98.671875 242.894531 93.449219 251.085938 87.859375 L 254.8125 85.359375 L 258.90625 82.820312 L 268.265625 77.25 C 274.863281 73.15625 282.605469 69.222656 291.019531 64.738281 C 293.070312 63.671875 295.261719 62.464844 297.511719 61.398438 L 304.375 58.203125 L 318.875 51.507812 C 329.113281 47.410156 339.742188 42.699219 351.394531 38.972656 C 455.511719 2.742188 568.816406 2.742188 672.933594 38.972656 C 684.585938 42.699219 695.253906 47.511719 705.453125 51.507812 L 719.953125 58.203125 L 726.816406 61.398438 C 729.046875 62.464844 731.15625 63.671875 733.308594 64.738281 C 741.703125 69.222656 749.464844 73.113281 756.058594 77.210938 L 765.417969 82.800781 L 769.515625 85.339844 L 773.242188 87.839844 C 804.542969 108.226562 833.777344 131.625 860.527344 157.695312 C 888.535156 186.007812 913.488281 217.183594 934.972656 250.714844 C 959.851562 289.398438 979.15625 331.390625 992.316406 375.460938 C 1019.203125 464.488281 1019.203125 559.472656 992.316406 648.5 Z M 1024 511.652344 C 1023.738281 416.910156 996.222656 324.25 944.742188 244.714844 L 932.597656 226.488281 L 923.832031 214.199219 C 918.773438 206.683594 911.011719 197.425781 903.597656 187.902344 C 895.632812 178.871094 887.972656 169.472656 881.519531 163.164062 L 871.117188 152.289062 L 868.148438 149.382812 L 860.28125 141.804688 C 853.933594 135.332031 844.738281 127.46875 835.707031 119.5625 C 831.058594 115.734375 826.285156 112.027344 821.902344 108.460938 L 815.535156 103.402344 C 813.484375 101.886719 811.4375 100.476562 809.617188 99.144531 L 797.328125 90.316406 C 797.328125 90.316406 796.261719 89.457031 794.5625 88.269531 L 788.417969 84.171875 L 779.304688 78.027344 L 775.496094 75.449219 L 771.234375 72.867188 C 768.265625 71.085938 765.09375 69.160156 761.671875 67.132812 C 754.953125 62.894531 747.007812 58.941406 738.40625 54.3125 C 736.257812 53.1875 734.085938 52 731.792969 50.894531 L 724.765625 47.617188 L 709.9375 40.734375 C 699.453125 36.640625 688.558594 31.722656 676.640625 27.894531 C 570.082031 -9.269531 454.082031 -9.269531 347.523438 27.894531 C 335.605469 31.722656 324.691406 36.640625 314.226562 40.734375 L 299.398438 47.617188 L 292.371094 50.894531 C 290.078125 51.976562 287.929688 53.1875 285.757812 54.3125 C 277.175781 58.902344 269.230469 62.894531 262.492188 67.132812 C 259.070312 69.179688 255.878906 71.085938 252.929688 72.867188 L 248.667969 75.449219 L 244.859375 78.027344 L 235.746094 84.171875 L 229.5 88.269531 C 227.800781 89.394531 226.734375 90.316406 226.734375 90.316406 L 214.445312 99.144531 C 212.644531 100.476562 210.636719 101.886719 208.527344 103.402344 L 202.15625 108.460938 C 197.753906 112.003906 192.984375 115.710938 188.355469 119.5625 C 179.34375 127.527344 170.148438 135.332031 163.777344 141.804688 L 155.914062 149.382812 L 152.945312 152.289062 L 142.539062 163.164062 C 136.089844 169.535156 128.429688 178.871094 120.464844 187.902344 C 113.050781 197.425781 105.289062 206.683594 100.230469 214.199219 L 91.464844 226.488281 L 79.320312 244.714844 C 27.835938 324.246094 0.324219 416.910156 0.0625 511.652344 L 0.0625 512.429688 C 0.3125 607.171875 27.828125 699.839844 79.320312 779.367188 L 91.464844 797.613281 L 100.230469 809.902344 C 105.289062 817.398438 113.050781 826.675781 120.464844 836.199219 C 128.429688 845.230469 136.089844 854.628906 142.539062 860.917969 L 152.945312 871.792969 L 155.914062 874.699219 L 163.777344 882.300781 C 170.128906 888.75 179.324219 896.636719 188.355469 904.519531 C 193.003906 908.390625 197.773438 912.054688 202.15625 915.621094 L 208.527344 920.679688 L 214.445312 924.9375 L 226.734375 933.765625 C 226.734375 933.765625 227.800781 934.625 229.5 935.8125 L 235.746094 939.910156 L 244.859375 946.054688 L 248.667969 948.632812 L 252.929688 951.214844 L 262.492188 956.949219 C 269.210938 961.1875 277.15625 965.140625 285.757812 969.769531 C 287.90625 970.894531 290.078125 972.082031 292.371094 973.210938 L 299.398438 976.464844 L 314.226562 983.347656 C 324.710938 987.441406 335.605469 992.359375 347.523438 996.207031 C 454.078125 1033.398438 570.085938 1033.398438 676.640625 996.207031 C 688.558594 992.359375 699.472656 987.464844 709.9375 983.347656 L 724.765625 976.464844 L 731.792969 973.210938 C 734.085938 972.082031 736.234375 970.894531 738.40625 969.769531 C 746.988281 965.179688 754.933594 961.1875 761.671875 956.949219 L 771.234375 951.214844 L 775.496094 948.632812 L 779.304688 946.054688 L 788.417969 939.910156 L 794.5625 935.8125 C 796.261719 934.6875 797.328125 933.765625 797.328125 933.765625 L 809.617188 924.9375 L 815.535156 920.679688 L 821.902344 915.621094 C 826.304688 912.078125 831.078125 908.390625 835.707031 904.519531 C 844.71875 896.554688 853.914062 888.75 860.28125 882.300781 L 868.148438 874.699219 L 871.117188 871.792969 L 881.519531 860.917969 C 887.972656 854.546875 895.632812 845.230469 903.597656 836.199219 C 911.011719 826.675781 918.773438 817.398438 923.832031 809.902344 C 928.890625 802.40625 932.597656 797.613281 932.597656 797.613281 L 944.742188 779.367188 C 996.234375 699.839844 1023.746094 607.171875 1024 512.429688 L 1024 511.714844 "/>
<path style=" stroke:none;fill-rule:nonzero;fill:rgb(0%,0%,0%);fill-opacity:1;" d="M 592.21875 631.683594 L 538.03125 631.683594 C 533.199219 631.683594 529.285156 635.601562 529.285156 640.429688 C 529.285156 645.261719 533.199219 649.175781 538.03125 649.175781 L 592.21875 649.175781 C 597.050781 649.175781 600.964844 645.261719 600.964844 640.429688 C 600.964844 635.601562 597.050781 631.683594 592.21875 631.683594 "/>
<g clip-path="url(#clip1)" clip-rule="nonzero">
<path style=" stroke:none;fill-rule:nonzero;fill:rgb(0%,0%,0%);fill-opacity:1;" d="M 601.3125 604.324219 C 601.28125 599.28125 597.179688 595.210938 592.136719 595.210938 L 501.023438 595.210938 C 495.984375 595.210938 491.898438 599.296875 491.898438 604.335938 C 491.898438 609.371094 495.984375 613.457031 501.023438 613.457031 L 592.136719 613.457031 C 597.179688 613.457031 601.28125 609.386719 601.3125 604.34375 "/>
</g>
<path style=" stroke:none;fill-rule:nonzero;fill:rgb(0%,0%,0%);fill-opacity:1;" d="M 514.765625 567.808594 C 514.757812 570.238281 515.722656 572.570312 517.441406 574.289062 C 519.15625 576.003906 521.488281 576.96875 523.917969 576.960938 L 592.261719 576.960938 C 597.304688 576.960938 601.394531 572.875 601.394531 567.828125 C 601.394531 562.785156 597.304688 558.695312 592.261719 558.695312 L 523.917969 558.695312 C 518.875 558.683594 514.777344 562.761719 514.765625 567.808594 "/>
<g clip-path="url(#clip2)" clip-rule="nonzero">
<path style=" stroke:none;fill-rule:nonzero;fill:rgb(0%,0%,0%);fill-opacity:1;" d="M 677.765625 699.738281 C 686.789062 699.839844 694.03125 707.222656 693.964844 716.246094 C 693.898438 725.269531 686.542969 732.539062 677.519531 732.507812 C 668.496094 732.472656 661.199219 725.148438 661.195312 716.125 C 661.253906 707.027344 668.667969 699.695312 677.765625 699.738281 Z M 792.902344 699.738281 C 801.929688 699.832031 809.183594 707.207031 809.125 716.230469 C 809.0625 725.257812 801.714844 732.535156 792.6875 732.507812 C 783.660156 732.476562 776.355469 725.152344 776.355469 716.125 C 776.414062 707.035156 783.8125 699.707031 792.902344 699.738281 Z M 620.503906 527.523438 L 855.082031 527.523438 L 819.875 649.175781 L 661.871094 649.175781 Z M 660.582031 664.144531 C 662.066406 662.539062 662.898438 660.433594 662.917969 658.246094 C 662.929688 660.433594 662.089844 662.542969 660.582031 664.125 Z M 641.964844 666.683594 L 654.253906 666.683594 C 654.5 666.683594 654.703125 666.847656 654.949219 666.847656 L 655.542969 666.726562 L 826.550781 666.726562 C 830.429688 666.820312 833.890625 664.300781 834.988281 660.582031 L 875.171875 521.320312 C 875.941406 518.6875 875.417969 515.84375 873.757812 513.660156 C 872.105469 511.464844 869.523438 510.167969 866.773438 510.15625 L 614.644531 510.15625 L 606.71875 487.261719 C 602.703125 475.753906 591.75 468.128906 579.5625 468.355469 L 542.1875 468.355469 C 539.101562 468.203125 536.179688 469.765625 534.589844 472.417969 C 533 475.066406 533 478.378906 534.589844 481.03125 C 536.179688 483.683594 539.101562 485.242188 542.1875 485.089844 L 579.5625 485.089844 C 584.335938 485.046875 588.59375 488.070312 590.132812 492.585938 L 599.59375 520.480469 C 599.753906 521.292969 600.054688 522.078125 600.472656 522.792969 L 643.480469 649.296875 L 641.988281 649.296875 C 620.925781 649.5 603.957031 666.617188 603.933594 687.675781 L 603.933594 689.109375 C 603.96875 699.164062 607.996094 708.792969 615.132812 715.875 C 622.273438 722.953125 631.933594 726.90625 641.988281 726.855469 L 645.507812 726.855469 C 644.363281 723.804688 644.363281 723.578125 645.507812 726.855469 C 650.238281 740.648438 663.207031 749.914062 677.785156 749.914062 C 692.367188 749.914062 705.335938 740.648438 710.0625 726.855469 C 711.1875 723.515625 711.1875 723.742188 710.0625 726.855469 L 760.648438 726.855469 C 759.5 723.804688 759.5 723.578125 760.648438 726.855469 C 765.375 740.648438 778.34375 749.914062 792.925781 749.914062 C 807.503906 749.914062 820.472656 740.648438 825.199219 726.855469 C 826.328125 723.515625 826.328125 723.742188 825.199219 726.855469 L 840.847656 726.855469 C 843.933594 727.007812 846.855469 725.449219 848.445312 722.796875 C 850.035156 720.144531 850.035156 716.832031 848.445312 714.183594 C 846.855469 711.53125 843.933594 709.972656 840.847656 710.125 L 826.347656 710.125 C 826.347656 710.125 826.347656 709.835938 826.347656 709.753906 C 823.074219 693.929688 809.136719 682.578125 792.976562 682.578125 C 776.816406 682.578125 762.875 693.929688 759.601562 709.753906 C 759.601562 709.753906 759.601562 710.101562 759.601562 710.101562 L 711.289062 710.101562 C 711.289062 710.101562 711.289062 709.816406 711.289062 709.734375 C 707.996094 693.921875 694.058594 682.589844 677.910156 682.589844 C 661.757812 682.589844 647.820312 693.921875 644.527344 709.734375 C 644.527344 709.734375 644.527344 710.082031 644.527344 710.082031 L 642.152344 710.082031 C 630.710938 709.890625 621.566406 700.511719 621.671875 689.070312 L 621.671875 687.636719 C 621.578125 676.226562 630.738281 666.890625 642.152344 666.765625 "/>
</g>
<path style=" stroke:none;fill-rule:nonzero;fill:rgb(0%,0%,0%);fill-opacity:1;" d="M 718.949219 576.183594 L 764.210938 576.183594 L 764.210938 605.0625 L 718.949219 605.0625 Z M 705.148438 576.183594 L 705.148438 605.0625 L 672.378906 605.0625 C 668.804688 605.0625 665.90625 607.957031 665.90625 611.53125 C 665.90625 615.105469 668.804688 618.003906 672.378906 618.003906 L 705.148438 618.003906 L 705.148438 637.460938 C 705.425781 641.066406 708.433594 643.851562 712.046875 643.851562 C 715.664062 643.851562 718.671875 641.066406 718.949219 637.460938 L 718.949219 618.003906 L 764.210938 618.003906 L 764.210938 637.460938 C 764.410156 641.132812 767.445312 644.007812 771.125 644.007812 C 774.800781 644.007812 777.835938 641.132812 778.035156 637.460938 L 778.035156 618.003906 L 807.179688 618.003906 C 810.753906 618.003906 813.648438 615.105469 813.648438 611.53125 C 813.648438 607.957031 810.753906 605.0625 807.179688 605.0625 L 778.015625 605.0625 L 778.015625 576.183594 L 818.523438 576.183594 C 822.300781 576.183594 825.363281 573.121094 825.363281 569.34375 C 825.363281 565.566406 822.300781 562.503906 818.523438 562.503906 L 778.015625 562.503906 L 778.015625 539.832031 C 777.816406 536.160156 774.78125 533.285156 771.101562 533.285156 C 767.425781 533.285156 764.390625 536.160156 764.191406 539.832031 L 764.191406 562.503906 L 718.929688 562.503906 L 718.929688 539.832031 C 718.929688 536.019531 715.839844 532.929688 712.027344 532.929688 C 708.214844 532.929688 705.125 536.019531 705.125 539.832031 L 705.125 562.503906 L 658.945312 562.503906 C 655.167969 562.503906 652.105469 565.566406 652.105469 569.34375 C 652.105469 573.121094 655.167969 576.183594 658.945312 576.183594 L 705.125 576.183594 "/>
<path style=" stroke:none;fill-rule:nonzero;fill:rgb(0%,0%,0%);fill-opacity:1;" d="M 385.167969 352.542969 C 406.769531 354.0625 425.523438 337.804688 427.082031 316.203125 C 428.640625 294.605469 412.414062 275.824219 390.816406 274.226562 C 369.21875 272.628906 350.410156 288.820312 348.773438 310.414062 C 347.28125 332.066406 363.527344 350.875 385.167969 352.542969 "/>
<path style=" stroke:none;fill-rule:nonzero;fill:rgb(0%,0%,0%);fill-opacity:1;" d="M 351.5 368.660156 C 360.734375 361.746094 372.460938 359.050781 383.792969 361.234375 C 395.121094 363.417969 405.007812 370.277344 411.011719 380.128906 L 451.113281 458.628906 L 505.835938 495.863281 C 510.699219 499.472656 513.34375 505.347656 512.820312 511.386719 C 512.417969 516.070312 510.171875 520.40625 506.570312 523.433594 C 502.972656 526.460938 498.316406 527.933594 493.628906 527.523438 C 490.753906 527.191406 487.972656 526.300781 485.4375 524.902344 L 425.757812 484.3125 C 423.949219 482.84375 422.402344 481.085938 421.171875 479.109375 L 406.242188 449.699219 L 388.21875 527.953125 L 458.730469 610.203125 C 460.355469 612.796875 461.488281 615.671875 462.070312 618.679688 L 481.117188 717.96875 C 480.953125 720.179688 481.28125 721.570312 481.117188 723.332031 C 480.5625 730.417969 477.203125 736.988281 471.777344 741.582031 C 466.355469 746.175781 459.320312 748.410156 452.238281 747.785156 C 440.492188 746.71875 430.742188 738.253906 428.03125 726.773438 L 410.070312 633.753906 L 352.726562 571.820312 L 339.496094 632.113281 C 338.046875 635.996094 336.25 639.738281 334.132812 643.296875 L 279.082031 734.863281 C 273.757812 743.460938 264.101562 748.398438 254.011719 747.683594 C 246.90625 747.214844 240.285156 743.914062 235.628906 738.527344 C 230.972656 733.140625 228.667969 726.109375 229.234375 719.011719 C 229.691406 714.992188 230.921875 711.097656 232.859375 707.542969 L 283.957031 622.917969 L 326.613281 436.449219 L 298.742188 458.691406 L 283.933594 525.105469 C 282.03125 534.019531 273.996094 540.273438 264.886719 539.933594 C 260.171875 539.589844 255.789062 537.375 252.710938 533.785156 C 249.636719 530.191406 248.121094 525.519531 248.503906 520.804688 C 248.542969 519.980469 248.636719 519.160156 248.792969 518.347656 L 266.300781 440.933594 C 267.3125 437.632812 269.210938 434.671875 271.789062 432.375 L 351.660156 368.558594 Z M 351.5 368.660156 "/>
</g>
</svg>
